<svg xmlns="http://www.w3.org/2000/svg" viewBox="0 0 512 512" style="height: 64px; width: 64px;"><defs><radialGradient id="delapouite-unbalanced-gradient-0"><stop offset="0%" stop-color="#6abf69" stop-opacity="1"></stop><stop offset="100%" stop-color="#00600f" stop-opacity="1"></stop></radialGradient></defs><circle cx="256" cy="256" r="246" fill="url(#delapouite-unbalanced-gradient-0)" stroke="#000000" stroke-opacity="1" stroke-width="10"></circle><g class="" transform="translate(0,-45)" style=""><path d="M404.5 162.5c-26.1 0-47 20.9-47 47s20.9 47 47 47 47-20.9 47-47-20.9-47-47-47zm72.2 89.1l-447.99 176 6.58 16.8 448.01-176-6.6-16.8zM121.2 287l-87.28 35 29 72.4 87.28-35-29-72.4zM256 383l-78 104h156l-78-104z" fill="#ffffff" fill-opacity="1" transform="translate(76.8, 76.8) scale(0.7, 0.7) rotate(0, 256, 256) skewX(0) skewY(0)"></path></g></svg>